<svg xmlns="http://www.w3.org/2000/svg" xmlns:xlink="http://www.w3.org/1999/xlink" version="1.1" id="Layer_1" x="0px" y="0px" width="100px" height="100px" viewBox="0 0 100 100" enable-background="new 0 0 100 100" xml:space="preserve">
<path d="M83.52,16.488C77.044,10.014,68.437,6.447,59.282,6.447c-9.157,0-17.765,3.566-24.237,10.041  c-12.353,12.353-13.261,31.852-2.78,45.29L21.62,72.423l-9.198-9.198L6.457,69.19l9.198,9.198L9.44,84.602l5.965,5.966l6.215-6.213  l9.198,9.198l5.966-5.966l-9.198-9.198l10.63-10.634c5.996,4.694,13.332,7.244,21.066,7.244c9.157,0,17.765-3.563,24.237-10.038  C96.883,51.599,96.884,29.853,83.52,16.488z M77.555,58.998c-4.882,4.881-11.37,7.566-18.272,7.566s-13.391-2.686-18.272-7.566  c-10.075-10.076-10.075-26.469,0-36.545c4.881-4.879,11.37-7.568,18.272-7.568s13.391,2.689,18.272,7.568  C87.628,32.53,87.628,48.923,77.555,58.998z"/>
</svg>