<svg xmlns="http://www.w3.org/2000/svg" xmlns:xlink="http://www.w3.org/1999/xlink" version="1.1" id="Layer_2" x="0px" y="0px" width="100px" height="100px" viewBox="0 0 100 100" enable-background="new 0 0 100 100" xml:space="preserve">
<path d="M92.812,7.24l-4.686,0.184V7.409L60.779,8.811l0.428,8.426l16.377-0.842L62.531,31.45  c-5.996-4.693-13.333-7.244-21.066-7.244c-9.156,0-17.765,3.565-24.237,10.04c-6.475,6.474-10.04,15.082-10.04,24.239  c0,9.155,3.565,17.764,10.04,24.237c6.474,6.474,15.082,10.038,24.236,10.038c9.155,0,17.765-3.564,24.237-10.038  c6.475-6.476,10.041-15.083,10.041-24.237c0-7.734-2.553-15.073-7.245-21.068L83.55,22.364l-0.813,15.859l8.427,0.468l1.375-26.782  h-0.013L92.812,7.24z M59.735,76.753c-4.881,4.881-11.37,7.568-18.271,7.568c-6.901,0-13.39-2.688-18.271-7.568  c-4.882-4.881-7.569-11.368-7.569-18.271c0-6.903,2.688-13.392,7.569-18.272c4.881-4.881,11.37-7.568,18.271-7.568  c6.902,0,13.391,2.688,18.271,7.568c4.882,4.88,7.569,11.369,7.569,18.272C67.302,65.385,64.616,71.875,59.735,76.753z"/>
</svg>