<svg xmlns="http://www.w3.org/2000/svg" xmlns:xlink="http://www.w3.org/1999/xlink" version="1.1" x="0px" y="0px" width="100px" height="100px" viewBox="0 0 100 100" enable-background="new 0 0 100 100" xml:space="preserve">
<g id="Layer_1">
</g>
<g id="Layer_3">
	<g>
		<path d="M31.189,79.603l-6.103-1.807l6.031-6.572c-7.816,1.096-20.383,1.875-25.537,5.309l0.001,0.007    C5.582,76.54,5.581,76.54,5.58,76.541c-0.833,0.529-1.594,1.155-2.271,1.866c-0.013,0.015-0.025,0.028-0.038,0.043    c-0.306,0.324-0.591,0.666-0.859,1.022c-0.04,0.053-0.079,0.105-0.118,0.158c-0.262,0.361-0.507,0.734-0.729,1.123    c-0.012,0.022-0.026,0.043-0.039,0.064c-0.234,0.418-0.444,0.85-0.627,1.296c-0.023,0.057-0.041,0.116-0.063,0.173    c-0.144,0.367-0.27,0.742-0.377,1.126c-0.038,0.132-0.07,0.266-0.103,0.399c-0.081,0.332-0.147,0.669-0.2,1.011    c-0.021,0.138-0.046,0.272-0.063,0.411C0.037,85.705,0,86.182,0,86.667v1.194v9c0,1.657,1.343,3,3,3h9h25.818L22.152,85.252    L31.189,79.603z"/>
		<path d="M37.222,78.78l-7.345,4.591c3.474,0.77,12.068,2.473,20.123,2.473c8.055,0,16.649-1.703,20.123-2.473l-7.344-4.591    l7.584-2.244l-5.545-6.044c-0.494-0.123-0.934-0.254-1.297-0.395c-0.321-0.309-1.006-1.171-1.272-2.928    c1.135,0.104,2.308,0.174,3.585,0.174c5.5,0,10.084-2.096,12.334-3.094c2.25-1,1.75-1.752,0.916-1.918    c-0.832-0.168-5.25,2-5.333-3.166s3.167-9.584,3.583-23.167c0.418-13.583-8.285-24.521-17.585-26.75    c-8.78-2.104-14.399,5.394-15.706,7.367c-0.115,0.029-0.229,0.062-0.344,0.093l0-0.003c0,0-4.867-3.707-8.45-2.624    s-13,8.333-12.583,21.917S26.333,54,26.249,59.166s-4.5,2.999-5.333,3.166s-1.333,0.919,0.917,1.918s6.833,3.095,12.333,3.095    c1.278,0,2.45-0.069,3.585-0.175c-0.266,1.757-0.951,2.618-1.271,2.928c-0.363,0.142-0.804,0.271-1.298,0.395l-5.544,6.044    L37.222,78.78z M61.633,70.692c0.549,0,0.996,0.446,0.996,0.997c0,0.549-0.447,0.996-0.996,0.996c-0.55,0-0.999-0.447-0.999-0.996    C60.634,71.139,61.083,70.692,61.633,70.692z M59.35,71.581c0.657,0,1.191,0.532,1.191,1.189c0,0.658-0.534,1.19-1.191,1.19    c-0.659,0-1.19-0.532-1.19-1.19C58.159,72.113,58.69,71.581,59.35,71.581z M56.601,72.453c0.736,0,1.334,0.599,1.334,1.336    s-0.598,1.337-1.334,1.337c-0.741,0-1.338-0.6-1.338-1.337S55.859,72.453,56.601,72.453z M53.423,73.122    c0.798,0,1.448,0.649,1.448,1.447s-0.65,1.447-1.448,1.447c-0.801,0-1.446-0.649-1.446-1.447S52.622,73.122,53.423,73.122z     M50.002,73.354c0.852,0,1.542,0.689,1.542,1.54c0,0.852-0.69,1.542-1.542,1.542c-0.851,0-1.542-0.69-1.542-1.542    C48.46,74.044,49.151,73.354,50.002,73.354z M46.577,73.113c0.8,0,1.447,0.65,1.447,1.447c0,0.799-0.646,1.448-1.447,1.448    c-0.8,0-1.448-0.649-1.448-1.448C45.129,73.764,45.777,73.113,46.577,73.113z M43.399,72.445c0.739,0,1.336,0.6,1.336,1.336    c0,0.738-0.597,1.336-1.336,1.336c-0.737,0-1.335-0.598-1.335-1.336C42.064,73.045,42.662,72.445,43.399,72.445z M40.65,71.572    c0.659,0,1.19,0.533,1.19,1.19c0,0.658-0.532,1.19-1.19,1.19c-0.657,0-1.19-0.532-1.19-1.19    C39.46,72.105,39.994,71.572,40.65,71.572z M38.368,70.685c0.551,0,0.996,0.446,0.996,0.995c0,0.552-0.445,0.998-0.996,0.998    c-0.551,0-0.997-0.446-0.997-0.998C37.371,71.131,37.817,70.685,38.368,70.685z"/>
		<path d="M99.907,85.235c-0.017-0.14-0.042-0.275-0.063-0.413c-0.053-0.341-0.118-0.678-0.199-1.009    c-0.033-0.135-0.066-0.269-0.104-0.401c-0.107-0.382-0.232-0.756-0.376-1.121c-0.023-0.059-0.041-0.119-0.065-0.178    c-0.183-0.445-0.392-0.876-0.625-1.293c-0.014-0.024-0.03-0.048-0.044-0.072c-0.22-0.386-0.462-0.756-0.722-1.113    c-0.041-0.057-0.083-0.11-0.124-0.166c-0.266-0.354-0.549-0.691-0.851-1.013c-0.016-0.017-0.03-0.034-0.047-0.051    c-0.675-0.71-1.435-1.335-2.265-1.862c-0.002-0.001-0.003-0.003-0.005-0.004l0.001-0.007c-5.154-3.434-17.721-4.213-25.537-5.31    l6.032,6.573l-6.104,1.807l9.038,5.649L62.182,99.861H88h9c1.657,0,3-1.343,3-3v-9v-1.194C100,86.182,99.963,85.706,99.907,85.235    z M81.091,93.654c-1.743-0.699-2.851,0.46-4.194-0.212v0.452v2.083c0,0.21-0.169,0.38-0.381,0.38c-0.21,0-0.38-0.17-0.38-0.38    v-2.059v-3.304c0-0.21,0.17-0.38,0.38-0.38c0.212,0,0.381,0.17,0.381,0.38v0.171c1.344,0.673,2.449-0.485,4.194,0.212V93.654z"/>
	</g>
</g>
</svg>