<svg xmlns="http://www.w3.org/2000/svg" xmlns:xlink="http://www.w3.org/1999/xlink" version="1.1" id="Layer_1" x="0px" y="0px" width="100px" height="100px" viewBox="0 0 100 100" enable-background="new 0 0 100 100" xml:space="preserve">
<path d="M48.709,37.769c0-6.646,5.385-12.031,12.029-12.031s12.032,5.386,12.032,12.031c0,6.643-5.388,12.029-12.032,12.029  S48.709,44.412,48.709,37.769z M60.738,56.764c-2.847,0-5.548-0.634-7.976-1.761l-0.519,5.271c2.644,1.001,5.504,1.555,8.494,1.555  c13.269,0,24.062-10.793,24.062-24.061c0-13.269-10.794-24.062-24.062-24.062c-13.267,0-24.059,10.793-24.059,24.062  c0,4.217,1.092,8.182,3.007,11.633l5.636-0.556c-2.248-3.121-3.578-6.947-3.578-11.077c0-10.476,8.521-18.998,18.995-18.998  c10.476,0,18.997,8.522,18.997,18.998C79.735,48.242,71.214,56.764,60.738,56.764z M60.738,2.73  c-19.318,0-35.035,15.717-35.035,35.039c0,4.505,0.864,8.812,2.421,12.772l5.274-0.521c-1.685-3.743-2.63-7.888-2.63-12.251  c0-16.527,13.445-29.973,29.971-29.973c16.528,0,29.973,13.446,29.973,29.973c0,16.524-13.444,29.969-29.973,29.969  c-3.167,0-6.222-0.497-9.092-1.413l-0.504,5.133c3.053,0.871,6.27,1.349,9.596,1.349c19.32,0,35.038-15.719,35.038-35.037  C95.776,18.447,80.059,2.73,60.738,2.73z M36.127,54.842l-5.647,0.556l-14.682,1.448l6.96,6.964L4.223,82.346L19.148,97.27  l18.535-18.534l6.964,6.963l1.582-16.052l0.53-5.379l0.64-6.485l0.405-4.093l-4.665,0.46L36.127,54.842z"/>
</svg>